<?xml version="1.0" encoding="UTF-8"?>
<!DOCTYPE svg PUBLIC "-//W3C//DTD SVG 1.1//EN" "http://www.w3.org/Graphics/SVG/1.1/DTD/svg11.dtd">
<svg xmlns="http://www.w3.org/2000/svg" version="1.1" width="4000px" height="2000px" style="shape-rendering:geometricPrecision; text-rendering:geometricPrecision; image-rendering:optimizeQuality; fill-rule:evenodd; clip-rule:evenodd" xmlns:xlink="http://www.w3.org/1999/xlink">
<g><path style="opacity:1" fill="#9bcff5" d="M -0.5,-0.5 C 1332.83,-0.5 2666.17,-0.5 3999.5,-0.5C 3999.5,171.167 3999.5,342.833 3999.5,514.5C 3950.23,564.938 3900.73,615.272 3851,665.5C 3833.2,685.633 3815.04,705.466 3796.5,725C 3739.36,774.802 3684.02,826.802 3630.5,881C 3614.91,895.05 3599.41,909.217 3584,923.5C 3559.8,950.036 3535.96,976.869 3512.5,1004C 3480.93,1031.9 3450.26,1060.9 3420.5,1091C 3367.06,1140.46 3310.73,1186.12 3251.5,1228C 3225.49,1244.68 3198.82,1260.34 3171.5,1275C 3133.46,1290.13 3094.79,1304.13 3055.5,1317C 3039.45,1320.54 3023.45,1324.21 3007.5,1328C 2988.05,1330.04 2968.55,1331.54 2949,1332.5C 2855.36,1327.28 2768.86,1300.44 2689.5,1252C 2657.17,1230.5 2624.51,1209.5 2591.5,1189C 2582.45,1181.62 2573.12,1174.62 2563.5,1168C 2540.29,1153.45 2517.62,1138.12 2495.5,1122C 2439.19,1089.51 2380.19,1063.51 2318.5,1044C 2301.81,1039.38 2284.81,1035.71 2267.5,1033C 2238.53,1030.62 2209.53,1028.79 2180.5,1027.5C 2160.72,1029.76 2141.06,1032.6 2121.5,1036C 2095.32,1041.71 2069.32,1048.04 2043.5,1055C 1995.85,1071.93 1947.85,1088.6 1899.5,1105C 1860.2,1121.48 1821.2,1138.81 1782.5,1157C 1754.29,1167.85 1725.96,1178.52 1697.5,1189C 1648.13,1206.51 1597.13,1217.34 1544.5,1221.5C 1511.07,1219.12 1478.07,1213.95 1445.5,1206C 1386.53,1189.68 1332.86,1163.02 1284.5,1126C 1232.69,1083.85 1185.85,1036.68 1144,984.5C 1089.58,908.021 1039.92,828.355 995,745.5C 989.884,732.949 984.551,720.616 979,708.5C 967.699,677.311 956.699,645.977 946,614.5C 943.078,604.991 940.578,595.325 938.5,585.5C 962.33,556.837 988.663,530.67 1017.5,507C 1024.52,504 1031.68,501.5 1039,499.5C 1042.02,478.207 1033.19,471.041 1012.5,478C 997.827,487.334 984.994,498.834 974,512.5C 959.207,530.112 945.041,548.112 931.5,566.5C 931.664,563.813 931.497,561.146 931,558.5C 912.4,498.961 885.4,443.294 850,391.5C 844.491,384.47 838.991,377.47 833.5,370.5C 856.795,345.369 880.295,320.369 904,295.5C 910.173,288.989 915.173,281.656 919,273.5C 920.569,269.098 919.069,267.098 914.5,267.5C 909.797,267.901 905.464,269.401 901.5,272C 879.441,286.725 857.941,302.225 837,318.5C 847.623,285.991 860.623,254.325 876,223.5C 895.506,186.482 915.506,149.815 936,113.5C 936.743,110.217 936.076,107.217 934,104.5C 930.547,99.3788 926.714,94.5455 922.5,90C 919.5,88 916.5,88 913.5,90C 910,93.5 906.5,97 903,100.5C 877.475,135.03 850.809,168.697 823,201.5C 808.765,217.736 793.265,232.57 776.5,246C 765.587,249.094 760.754,244.927 762,233.5C 791.941,179.957 820.607,125.624 848,70.5C 852.093,61.5673 852.426,52.5673 849,43.5C 843.746,38.9405 837.579,36.9405 830.5,37.5C 812.017,39.8278 794.683,45.6611 778.5,55C 746.956,72.5204 717.79,93.3537 691,117.5C 687.279,122.275 684.612,127.609 683,133.5C 679.906,148.055 677.906,162.722 677,177.5C 677.388,178.428 678.055,179.095 679,179.5C 693.24,171.297 707.074,162.464 720.5,153C 744.881,133.617 769.548,114.617 794.5,96C 800.148,92.2281 805.982,91.7281 812,94.5C 812.738,98.2613 812.405,101.928 811,105.5C 795.01,135.488 778.01,164.821 760,193.5C 746.944,217.613 734.444,241.946 722.5,266.5C 718.518,263.848 714.851,260.848 711.5,257.5C 711.827,252.786 711.493,248.12 710.5,243.5C 709.893,243.624 709.56,243.957 709.5,244.5C 706.816,246.193 704.149,247.86 701.5,249.5C 694.989,245.077 688.655,240.411 682.5,235.5C 687.503,223.82 691.669,211.82 695,199.5C 696.629,185.218 690.796,181.051 677.5,187C 668.267,194.732 659.934,203.232 652.5,212.5C 644.492,207.497 636.492,202.497 628.5,197.5C 640.267,191.625 651.934,185.458 663.5,179C 668.146,175.358 671.646,170.858 674,165.5C 675.027,161.82 674.194,158.653 671.5,156C 660.652,152.474 649.985,153.141 639.5,158C 625.186,164.82 611.519,172.653 598.5,181.5C 596.801,181.66 595.134,181.494 593.5,181C 579.916,174.677 565.916,169.344 551.5,165C 524.256,158.805 497.256,151.805 470.5,144C 451.917,139.678 433.25,135.845 414.5,132.5C 419.434,112.599 412.1,105.433 392.5,111C 386.931,115.735 382.265,121.235 378.5,127.5C 349.08,128.903 320.08,133.236 291.5,140.5C 290.893,140.376 290.56,140.043 290.5,139.5C 302.348,123.783 307.182,106.116 305,86.5C 300.648,69.1471 289.815,57.9804 272.5,53C 255.104,49.5587 237.77,49.8921 220.5,54C 178.313,65.5939 138.647,82.9272 101.5,106C 90.8551,113.779 84.6885,124.279 83,137.5C 82.3333,148.167 82.3333,158.833 83,169.5C 84.7142,176.896 89.2142,179.73 96.5,178C 107.168,174.5 117.502,170.167 127.5,165C 138.309,161.215 149.309,158.215 160.5,156C 161.554,154.612 161.72,153.112 161,151.5C 158.808,149.765 156.308,148.598 153.5,148C 143.812,147.245 134.146,147.411 124.5,148.5C 120.982,148.715 120.649,147.881 123.5,146C 153.051,126.057 184.718,110.057 218.5,98C 235.679,91.8585 253.346,89.5251 271.5,91C 274.845,92.5034 276.845,95.0034 277.5,98.5C 270.023,122.128 257.023,142.128 238.5,158.5C 218.582,166.554 198.915,175.054 179.5,184C 150.108,194.675 120.775,205.342 91.5,216C 78.9033,220.965 67.57,227.965 57.5,237C 46.6667,248.5 35.8333,260 25,271.5C 15.1059,287.624 6.60586,304.291 -0.5,321.5C -0.5,214.167 -0.5,106.833 -0.5,-0.5 Z"/></g>
<g><path style="opacity:1" fill="#f9cc89" d="M 833.5,370.5 C 823.399,383.843 813.399,397.343 803.5,411C 791.975,416.488 784.809,412.988 782,400.5C 781.333,395.167 781.333,389.833 782,384.5C 786.61,367.17 792.11,350.17 798.5,333.5C 826.275,268.614 858.775,206.281 896,146.5C 896.982,145.241 897.315,143.908 897,142.5C 856.425,198.591 811.258,250.924 761.5,299.5C 757.746,301.748 754.412,304.581 751.5,308C 738.798,317.898 727.964,316.065 719,302.5C 714.934,289.99 716.101,277.99 722.5,266.5C 734.444,241.946 746.944,217.613 760,193.5C 778.01,164.821 795.01,135.488 811,105.5C 812.405,101.928 812.738,98.2613 812,94.5C 805.982,91.7281 800.148,92.2281 794.5,96C 769.548,114.617 744.881,133.617 720.5,153C 707.074,162.464 693.24,171.297 679,179.5C 678.055,179.095 677.388,178.428 677,177.5C 677.906,162.722 679.906,148.055 683,133.5C 684.612,127.609 687.279,122.275 691,117.5C 717.79,93.3537 746.956,72.5204 778.5,55C 794.683,45.6611 812.017,39.8278 830.5,37.5C 837.579,36.9405 843.746,38.9405 849,43.5C 852.426,52.5673 852.093,61.5673 848,70.5C 820.607,125.624 791.941,179.957 762,233.5C 760.754,244.927 765.587,249.094 776.5,246C 793.265,232.57 808.765,217.736 823,201.5C 850.809,168.697 877.475,135.03 903,100.5C 906.5,97 910,93.5 913.5,90C 916.5,88 919.5,88 922.5,90C 926.714,94.5455 930.547,99.3788 934,104.5C 936.076,107.217 936.743,110.217 936,113.5C 915.506,149.815 895.506,186.482 876,223.5C 860.623,254.325 847.623,285.991 837,318.5C 857.941,302.225 879.441,286.725 901.5,272C 905.464,269.401 909.797,267.901 914.5,267.5C 919.069,267.098 920.569,269.098 919,273.5C 915.173,281.656 910.173,288.989 904,295.5C 880.295,320.369 856.795,345.369 833.5,370.5 Z"/></g>
<g><path style="opacity:1" fill="#f9cc89" d="M 290.5,139.5 C 275.362,159.471 257.695,176.971 237.5,192C 204.685,215.917 170.352,237.583 134.5,257C 165.654,263.564 196.987,269.23 228.5,274C 236.167,274.667 243.833,274.667 251.5,274C 261.201,272.523 270.867,271.19 280.5,270C 274.461,282.577 268.295,295.077 262,307.5C 254.343,320.329 243.01,325.995 228,324.5C 219.812,324.346 211.645,323.846 203.5,323C 166.075,316.848 128.742,310.182 91.5,303C 83.8333,302.333 76.1667,302.333 68.5,303C 61.8148,307.842 54.4815,311.342 46.5,313.5C 40.2781,312.592 37.6115,308.926 38.5,302.5C 41.4475,287.437 48.4475,274.604 59.5,264C 74.374,257.111 90.0407,254.111 106.5,255C 149.481,232.008 189.148,204.341 225.5,172C 230.037,167.631 234.37,163.131 238.5,158.5C 257.023,142.128 270.023,122.128 277.5,98.5C 276.845,95.0034 274.845,92.5034 271.5,91C 253.346,89.5251 235.679,91.8585 218.5,98C 184.718,110.057 153.051,126.057 123.5,146C 120.649,147.881 120.982,148.715 124.5,148.5C 134.146,147.411 143.812,147.245 153.5,148C 156.308,148.598 158.808,149.765 161,151.5C 161.72,153.112 161.554,154.612 160.5,156C 149.309,158.215 138.309,161.215 127.5,165C 117.502,170.167 107.168,174.5 96.5,178C 89.2142,179.73 84.7142,176.896 83,169.5C 82.3333,158.833 82.3333,148.167 83,137.5C 84.6885,124.279 90.8551,113.779 101.5,106C 138.647,82.9272 178.313,65.5939 220.5,54C 237.77,49.8921 255.104,49.5587 272.5,53C 289.815,57.9804 300.648,69.1471 305,86.5C 307.182,106.116 302.348,123.783 290.5,139.5 Z"/></g>
<g><path style="opacity:1" fill="#f9cd89" d="M 1332.5,63.5 C 1351.54,63.094 1370.54,63.594 1389.5,65C 1397.55,66.1277 1405.22,68.461 1412.5,72C 1414.38,73.5429 1415.88,75.3762 1417,77.5C 1418.99,90.8908 1416.16,103.057 1408.5,114C 1397.65,119.754 1386.32,124.42 1374.5,128C 1365.51,132.495 1356.84,137.495 1348.5,143C 1345.69,144.741 1342.69,145.908 1339.5,146.5C 1340.47,141.078 1343.13,136.578 1347.5,133C 1356.7,126.572 1366.03,120.405 1375.5,114.5C 1334.45,109.619 1294.45,114.786 1255.5,130C 1244.97,134.208 1235.8,140.375 1228,148.5C 1222.49,156.59 1223.65,163.424 1231.5,169C 1249.5,174.333 1267.5,179.667 1285.5,185C 1307.99,191.6 1328.99,201.267 1348.5,214C 1373.6,233.464 1377.43,256.631 1360,283.5C 1356.11,290.448 1350.94,296.282 1344.5,301C 1325.72,312.597 1305.38,320.264 1283.5,324C 1247.74,331.174 1211.74,332.84 1175.5,329C 1163.66,327.721 1152.66,324.055 1142.5,318C 1134.04,311.026 1132.21,302.526 1137,292.5C 1142.92,279.581 1152.42,270.415 1165.5,265C 1171.94,264.085 1178.28,264.419 1184.5,266C 1179.5,268.5 1174.5,271 1169.5,273.5C 1168.27,274.651 1168.27,275.817 1169.5,277C 1171.39,277.973 1173.39,278.64 1175.5,279C 1205.52,279.887 1235.52,279.554 1265.5,278C 1294.36,276.384 1320.19,266.884 1343,249.5C 1342.55,246.261 1341.22,243.261 1339,240.5C 1329.32,230.5 1317.82,223.333 1304.5,219C 1287.18,215.001 1269.84,211.001 1252.5,207C 1234.53,201.791 1217.53,194.458 1201.5,185C 1197.88,182.258 1195.38,178.758 1194,174.5C 1191.37,145.723 1199.87,120.89 1219.5,100C 1234.72,88.2259 1251.72,79.8926 1270.5,75C 1291.01,69.5292 1311.68,65.6958 1332.5,63.5 Z"/></g>
<g><path style="opacity:1" fill="#f9cd89" d="M 1600.5,236.5 C 1604.46,229.399 1604.12,229.066 1599.5,235.5C 1584.54,256.304 1567.88,275.804 1549.5,294C 1538.12,304.474 1527.28,303.974 1517,292.5C 1510.25,282.178 1506.59,270.845 1506,258.5C 1492.77,272.397 1478.94,285.564 1464.5,298C 1454.3,306.102 1442.96,312.102 1430.5,316C 1416.21,317.387 1408.04,310.887 1406,296.5C 1406.49,277.86 1410.99,260.193 1419.5,243.5C 1419.33,243.167 1419.17,242.833 1419,242.5C 1413.3,247.366 1407.8,252.366 1402.5,257.5C 1401.52,253.366 1401.18,249.032 1401.5,244.5C 1420.37,225.96 1437.04,205.627 1451.5,183.5C 1452.04,183.44 1452.38,183.107 1452.5,182.5C 1444.01,181.179 1435.68,181.179 1427.5,182.5C 1423.12,183.293 1418.79,184.293 1414.5,185.5C 1414.27,179.694 1415.77,174.361 1419,169.5C 1425.06,157.436 1433.9,147.936 1445.5,141C 1457.72,138.884 1470.05,137.884 1482.5,138C 1488.25,126.576 1495.92,116.576 1505.5,108C 1513.46,102.389 1522.12,101.056 1531.5,104C 1533.98,106.284 1534.15,108.784 1532,111.5C 1524.97,120.358 1518.14,129.358 1511.5,138.5C 1517.93,139.076 1524.26,140.076 1530.5,141.5C 1531.04,143.523 1530.54,145.523 1529,147.5C 1521.28,160.548 1512.78,173.048 1503.5,185C 1494.97,185.216 1486.47,184.716 1478,183.5C 1476.11,183.785 1474.78,184.785 1474,186.5C 1463.7,202.771 1454.7,219.771 1447,237.5C 1443.32,247.886 1441.99,258.553 1443,269.5C 1444.92,274.209 1448.42,276.542 1453.5,276.5C 1457.06,276.555 1460.39,275.722 1463.5,274C 1478.66,265.169 1493,255.169 1506.5,244C 1508.88,233.191 1513.38,223.358 1520,214.5C 1531.37,198.461 1544.2,183.627 1558.5,170C 1568.45,166.778 1578.45,166.778 1588.5,170C 1590.41,170.408 1591.41,171.575 1591.5,173.5C 1586.93,183.636 1581.1,192.969 1574,201.5C 1562.13,214.572 1549.13,226.239 1535,236.5C 1531.91,243.554 1530.91,250.887 1532,258.5C 1535.01,264.17 1539.18,265.004 1544.5,261C 1560.5,247.333 1576.5,233.667 1592.5,220C 1604.45,205.926 1616.29,191.759 1628,177.5C 1633.83,171.667 1639.67,165.833 1645.5,160C 1650.24,155.563 1655.57,154.563 1661.5,157C 1662.21,158.255 1663.04,159.421 1664,160.5C 1666.03,170.703 1664.03,180.036 1658,188.5C 1648.33,202.5 1638.67,216.5 1629,230.5C 1624.53,237.771 1620.86,245.438 1618,253.5C 1615.69,265.856 1620.52,270.689 1632.5,268C 1644.35,262.973 1655.02,256.139 1664.5,247.5C 1667.26,235.643 1672.43,224.976 1680,215.5C 1701.05,191.107 1726.89,173.941 1757.5,164C 1768.39,162.361 1777.22,165.861 1784,174.5C 1792.5,159.509 1800.5,144.176 1808,128.5C 1815,116.5 1822,104.5 1829,92.5C 1834.32,84.031 1840.49,76.1977 1847.5,69C 1854.82,66.7416 1859.99,69.2416 1863,76.5C 1863.77,83.0894 1862.77,89.4227 1860,95.5C 1840.84,129.827 1821.17,163.827 1801,197.5C 1792.42,213.329 1786.08,229.995 1782,247.5C 1781.33,254.5 1781.33,261.5 1782,268.5C 1784.76,277.629 1790.59,280.462 1799.5,277C 1815.07,268.109 1828.9,256.942 1841,243.5C 1841.67,248.833 1841.67,254.167 1841,259.5C 1828.88,274.622 1815.71,288.788 1801.5,302C 1795.05,307.558 1787.72,311.558 1779.5,314C 1767.27,316.433 1759.77,311.6 1757,299.5C 1756.12,293.7 1755.62,287.867 1755.5,282C 1756.26,269.346 1757.76,256.846 1760,244.5C 1746.53,259.635 1732.7,274.468 1718.5,289C 1711.53,295.151 1704.19,300.817 1696.5,306C 1693.7,306.755 1691.03,306.422 1688.5,305C 1676.62,292.401 1669.12,277.568 1666,260.5C 1650.38,275.789 1633.88,289.956 1616.5,303C 1607.6,308.851 1598.26,309.851 1588.5,306C 1586.38,304.269 1584.88,302.102 1584,299.5C 1581.41,287.758 1582.74,276.425 1588,265.5C 1592.08,255.763 1596.24,246.096 1600.5,236.5 Z"/></g>
<g><path style="opacity:1" fill="#f8cc89" d="M 414.5,132.5 C 411.129,140.035 405.796,145.868 398.5,150C 385.923,155.213 378.256,151.213 375.5,138C 375.808,134.262 376.808,130.762 378.5,127.5C 382.265,121.235 386.931,115.735 392.5,111C 412.1,105.433 419.434,112.599 414.5,132.5 Z"/></g>
<g><path style="opacity:1" fill="#f9cd8a" d="M 1034.5,108.5 C 1048.66,106.497 1055.16,112.497 1054,126.5C 1051.49,134.352 1047.32,141.185 1041.5,147C 1035.46,151.176 1028.79,152.509 1021.5,151C 1018.27,149.437 1016.1,146.937 1015,143.5C 1014.33,139.5 1014.33,135.5 1015,131.5C 1019.23,121.777 1025.73,114.11 1034.5,108.5 Z"/></g>
<g><path style="opacity:1" fill="#f9cd8a" d="M 1938.5,108.5 C 1952.66,106.497 1959.16,112.497 1958,126.5C 1955.49,134.352 1951.32,141.185 1945.5,147C 1939.46,151.176 1932.79,152.509 1925.5,151C 1922.27,149.437 1920.1,146.937 1919,143.5C 1918.33,139.5 1918.33,135.5 1919,131.5C 1923.23,121.777 1929.73,114.11 1938.5,108.5 Z"/></g>
<g><path style="opacity:1" fill="#808080" d="M 378.5,127.5 C 376.808,130.762 375.808,134.262 375.5,138C 378.256,151.213 385.923,155.213 398.5,150C 405.796,145.868 411.129,140.035 414.5,132.5C 433.25,135.845 451.917,139.678 470.5,144C 497.256,151.805 524.256,158.805 551.5,165C 565.916,169.344 579.916,174.677 593.5,181C 595.134,181.494 596.801,181.66 598.5,181.5C 580.526,193.307 565.693,208.307 554,226.5C 551.152,233.063 548.318,239.563 545.5,246C 535.85,253.492 525.85,260.492 515.5,267C 499.413,273.913 494.246,269.08 500,252.5C 509.355,235.14 521.022,219.473 535,205.5C 538.082,202.341 540.416,198.675 542,194.5C 542.486,185.284 540.486,176.618 536,168.5C 533.364,165.053 530.197,164.553 526.5,167C 515.639,172.54 505.305,178.873 495.5,186C 471.763,206.402 450.097,228.735 430.5,253C 425.659,255.8 422.993,254.466 422.5,249C 422.952,245.591 424.119,242.424 426,239.5C 435.817,224.342 447.151,210.342 460,197.5C 462.612,194.611 464.445,191.278 465.5,187.5C 464.461,183.625 462.128,180.792 458.5,179C 450.627,177.501 443.294,178.834 436.5,183C 420.972,198.189 408.139,215.355 398,234.5C 395.567,239.898 394.234,245.565 394,251.5C 384.54,259.616 374.04,266.116 362.5,271C 349.178,276.076 339.678,272.243 334,259.5C 333.333,255.833 333.333,252.167 334,248.5C 335.882,243.956 338.549,239.956 342,236.5C 352.4,226.769 362.067,216.436 371,205.5C 377.119,196.595 381.619,186.928 384.5,176.5C 384.264,172.429 382.264,169.596 378.5,168C 371.615,166.902 364.949,167.569 358.5,170C 334.559,186.284 317.726,208.117 308,235.5C 302.601,257.224 305.268,277.891 316,297.5C 320.756,305.097 327.589,309.097 336.5,309.5C 342.035,309.283 347.369,308.116 352.5,306C 369.073,296.769 383.24,284.602 395,269.5C 396.431,278.56 399.098,287.226 403,295.5C 406.81,300.669 411.643,301.835 417.5,299C 431.378,282.791 444.878,266.291 458,249.5C 469.498,236.493 482.331,225.16 496.5,215.5C 497.521,216.002 497.688,216.668 497,217.5C 483.646,237.206 472.646,258.206 464,280.5C 462.378,310.941 474.545,318.108 500.5,302C 517.198,289.309 532.698,275.142 547,259.5C 549.383,274.765 555.883,287.931 566.5,299C 574.238,302.331 581.905,301.997 589.5,298C 599.016,292.744 608.016,286.744 616.5,280C 629.304,268.196 641.804,256.03 654,243.5C 645.998,263.792 636.998,283.792 627,303.5C 610.44,316.388 594.773,330.388 580,345.5C 567.018,359.786 557.351,376.119 551,394.5C 550.333,398.5 550.333,402.5 551,406.5C 551.865,409.203 553.699,410.536 556.5,410.5C 563.649,408.926 569.982,405.759 575.5,401C 590.798,387.372 604.298,372.205 616,355.5C 625.958,340.419 635.791,325.252 645.5,310C 667.041,292.287 688.708,274.787 710.5,257.5C 710.833,257.5 711.167,257.5 711.5,257.5C 714.851,260.848 718.518,263.848 722.5,266.5C 716.101,277.99 714.934,289.99 719,302.5C 727.964,316.065 738.798,317.898 751.5,308C 754.412,304.581 757.746,301.748 761.5,299.5C 774.403,310.135 786.736,321.468 798.5,333.5C 792.11,350.17 786.61,367.17 782,384.5C 781.333,389.833 781.333,395.167 782,400.5C 784.809,412.988 791.975,416.488 803.5,411C 813.399,397.343 823.399,383.843 833.5,370.5C 838.991,377.47 844.491,384.47 850,391.5C 885.4,443.294 912.4,498.961 931,558.5C 931.497,561.146 931.664,563.813 931.5,566.5C 925.957,574.226 921.457,582.559 918,591.5C 917.282,595.177 916.949,598.843 917,602.5C 917.725,604.158 918.892,604.658 920.5,604C 926.004,597.329 932.004,591.163 938.5,585.5C 940.578,595.325 943.078,604.991 946,614.5C 956.699,645.977 967.699,677.311 979,708.5C 984.551,720.616 989.884,732.949 995,745.5C 1039.92,828.355 1089.58,908.021 1144,984.5C 1185.85,1036.68 1232.69,1083.85 1284.5,1126C 1332.86,1163.02 1386.53,1189.68 1445.5,1206C 1478.07,1213.95 1511.07,1219.12 1544.5,1221.5C 1597.13,1217.34 1648.13,1206.51 1697.5,1189C 1725.96,1178.52 1754.29,1167.85 1782.5,1157C 1821.2,1138.81 1860.2,1121.48 1899.5,1105C 1947.85,1088.6 1995.85,1071.93 2043.5,1055C 2069.32,1048.04 2095.32,1041.71 2121.5,1036C 2141.06,1032.6 2160.72,1029.76 2180.5,1027.5C 2209.53,1028.79 2238.53,1030.62 2267.5,1033C 2284.81,1035.71 2301.81,1039.38 2318.5,1044C 2380.19,1063.51 2439.19,1089.51 2495.5,1122C 2517.62,1138.12 2540.29,1153.45 2563.5,1168C 2573.12,1174.62 2582.45,1181.62 2591.5,1189C 2624.51,1209.5 2657.17,1230.5 2689.5,1252C 2768.86,1300.44 2855.36,1327.28 2949,1332.5C 2968.55,1331.54 2988.05,1330.04 3007.5,1328C 3023.45,1324.21 3039.45,1320.54 3055.5,1317C 3094.79,1304.13 3133.46,1290.13 3171.5,1275C 3198.82,1260.34 3225.49,1244.68 3251.5,1228C 3310.73,1186.12 3367.06,1140.46 3420.5,1091C 3450.26,1060.9 3480.93,1031.9 3512.5,1004C 3535.96,976.869 3559.8,950.036 3584,923.5C 3599.41,909.217 3614.91,895.05 3630.5,881C 3684.02,826.802 3739.36,774.802 3796.5,725C 3815.04,705.466 3833.2,685.633 3851,665.5C 3900.73,615.272 3950.23,564.938 3999.5,514.5C 3999.5,1009.5 3999.5,1504.5 3999.5,1999.5C 2666.17,1999.5 1332.83,1999.5 -0.5,1999.5C -0.5,1440.17 -0.5,880.833 -0.5,321.5C 6.60586,304.291 15.1059,287.624 25,271.5C 35.8333,260 46.6667,248.5 57.5,237C 67.57,227.965 78.9033,220.965 91.5,216C 120.775,205.342 150.108,194.675 179.5,184C 198.915,175.054 218.582,166.554 238.5,158.5C 234.37,163.131 230.037,167.631 225.5,172C 189.148,204.341 149.481,232.008 106.5,255C 90.0407,254.111 74.374,257.111 59.5,264C 48.4475,274.604 41.4475,287.437 38.5,302.5C 37.6115,308.926 40.2781,312.592 46.5,313.5C 54.4815,311.342 61.8148,307.842 68.5,303C 76.1667,302.333 83.8333,302.333 91.5,303C 128.742,310.182 166.075,316.848 203.5,323C 211.645,323.846 219.812,324.346 228,324.5C 243.01,325.995 254.343,320.329 262,307.5C 268.295,295.077 274.461,282.577 280.5,270C 270.867,271.19 261.201,272.523 251.5,274C 243.833,274.667 236.167,274.667 228.5,274C 196.987,269.23 165.654,263.564 134.5,257C 170.352,237.583 204.685,215.917 237.5,192C 257.695,176.971 275.362,159.471 290.5,139.5C 290.56,140.043 290.893,140.376 291.5,140.5C 320.08,133.236 349.08,128.903 378.5,127.5 Z"/></g>
<g><path style="opacity:1" fill="#f8cc89" d="M 628.5,197.5 C 610.769,207.389 595.603,220.389 583,236.5C 576.787,244.472 573.787,253.472 574,263.5C 574.606,266.548 576.106,269.048 578.5,271C 582.926,271.791 587.259,271.457 591.5,270C 615.208,254.46 635.542,235.293 652.5,212.5C 659.934,203.232 668.267,194.732 677.5,187C 690.796,181.051 696.629,185.218 695,199.5C 691.669,211.82 687.503,223.82 682.5,235.5C 675.44,249.618 668.94,263.951 663,278.5C 675.991,268.934 688.824,259.268 701.5,249.5C 704.149,247.86 706.816,246.193 709.5,244.5C 710.485,248.634 710.818,252.968 710.5,257.5C 688.708,274.787 667.041,292.287 645.5,310C 635.791,325.252 625.958,340.419 616,355.5C 604.298,372.205 590.798,387.372 575.5,401C 569.982,405.759 563.649,408.926 556.5,410.5C 553.699,410.536 551.865,409.203 551,406.5C 550.333,402.5 550.333,398.5 551,394.5C 557.351,376.119 567.018,359.786 580,345.5C 594.773,330.388 610.44,316.388 627,303.5C 636.998,283.792 645.998,263.792 654,243.5C 641.804,256.03 629.304,268.196 616.5,280C 608.016,286.744 599.016,292.744 589.5,298C 581.905,301.997 574.238,302.331 566.5,299C 555.883,287.931 549.383,274.765 547,259.5C 532.698,275.142 517.198,289.309 500.5,302C 474.545,318.108 462.378,310.941 464,280.5C 472.646,258.206 483.646,237.206 497,217.5C 497.688,216.668 497.521,216.002 496.5,215.5C 482.331,225.16 469.498,236.493 458,249.5C 444.878,266.291 431.378,282.791 417.5,299C 411.643,301.835 406.81,300.669 403,295.5C 399.098,287.226 396.431,278.56 395,269.5C 383.24,284.602 369.073,296.769 352.5,306C 347.369,308.116 342.035,309.283 336.5,309.5C 327.589,309.097 320.756,305.097 316,297.5C 305.268,277.891 302.601,257.224 308,235.5C 317.726,208.117 334.559,186.284 358.5,170C 364.949,167.569 371.615,166.902 378.5,168C 382.264,169.596 384.264,172.429 384.5,176.5C 381.619,186.928 377.119,196.595 371,205.5C 362.067,216.436 352.4,226.769 342,236.5C 338.549,239.956 335.882,243.956 334,248.5C 333.333,252.167 333.333,255.833 334,259.5C 339.678,272.243 349.178,276.076 362.5,271C 374.04,266.116 384.54,259.616 394,251.5C 394.234,245.565 395.567,239.898 398,234.5C 408.139,215.355 420.972,198.189 436.5,183C 443.294,178.834 450.627,177.501 458.5,179C 462.128,180.792 464.461,183.625 465.5,187.5C 464.445,191.278 462.612,194.611 460,197.5C 447.151,210.342 435.817,224.342 426,239.5C 424.119,242.424 422.952,245.591 422.5,249C 422.993,254.466 425.659,255.8 430.5,253C 450.097,228.735 471.763,206.402 495.5,186C 505.305,178.873 515.639,172.54 526.5,167C 530.197,164.553 533.364,165.053 536,168.5C 540.486,176.618 542.486,185.284 542,194.5C 540.416,198.675 538.082,202.341 535,205.5C 521.022,219.473 509.355,235.14 500,252.5C 494.246,269.08 499.413,273.913 515.5,267C 525.85,260.492 535.85,253.492 545.5,246C 548.318,239.563 551.152,233.063 554,226.5C 565.693,208.307 580.526,193.307 598.5,181.5C 611.519,172.653 625.186,164.82 639.5,158C 649.985,153.141 660.652,152.474 671.5,156C 674.194,158.653 675.027,161.82 674,165.5C 671.646,170.858 668.146,175.358 663.5,179C 651.934,185.458 640.267,191.625 628.5,197.5 Z"/></g>
<g><path style="opacity:1" fill="#9dcff4" d="M 798.5,333.5 C 786.736,321.468 774.403,310.135 761.5,299.5C 811.258,250.924 856.425,198.591 897,142.5C 897.315,143.908 896.982,145.241 896,146.5C 858.775,206.281 826.275,268.614 798.5,333.5 Z"/></g>
<g><path style="opacity:1" fill="#f9cd89" d="M 2018.5,160.5 C 2028.33,159.279 2036.83,161.945 2044,168.5C 2045.17,173.459 2044.01,177.792 2040.5,181.5C 2047.49,182.658 2051.66,186.658 2053,193.5C 2053.62,214.991 2048.12,234.825 2036.5,253C 2038.35,256.233 2041.02,257.566 2044.5,257C 2052.77,253.725 2060.27,249.225 2067,243.5C 2067.67,248.167 2067.67,252.833 2067,257.5C 2055.16,270.669 2040.32,277.169 2022.5,277C 2013.3,287.879 2002.63,296.879 1990.5,304C 1976.49,310.207 1963.82,308.207 1952.5,298C 1944.61,290.053 1939.44,280.553 1937,269.5C 1927.09,281.409 1915.93,291.909 1903.5,301C 1894.25,307.849 1883.92,310.516 1872.5,309C 1863.29,305.459 1857.13,298.959 1854,289.5C 1842.85,260.921 1845.85,233.921 1863,208.5C 1871.66,194.701 1882.49,182.867 1895.5,173C 1903.88,167.458 1912.88,166.125 1922.5,169C 1924.87,170.743 1926.2,173.077 1926.5,176C 1923.38,187.029 1918.55,197.196 1912,206.5C 1903.4,217.102 1894.07,227.102 1884,236.5C 1880.55,239.956 1877.88,243.956 1876,248.5C 1873.55,259.438 1877.39,267.272 1887.5,272C 1897.15,273.758 1906.15,272.092 1914.5,267C 1920.97,262.694 1927.31,258.194 1933.5,253.5C 1935.9,233.376 1943.73,215.71 1957,200.5C 1973.61,180.96 1994.11,167.626 2018.5,160.5 Z"/></g>
<g><path style="opacity:1" fill="#f9cd89" d="M 1040.5,244.5 C 1041.49,248.97 1041.82,253.637 1041.5,258.5C 1031.45,272.387 1019.78,284.887 1006.5,296C 974.981,320.05 954.481,312.883 945,274.5C 940.579,252.695 944.245,232.361 956,213.5C 965.342,197.824 977.175,184.324 991.5,173C 999.883,167.458 1008.88,166.125 1018.5,169C 1021.79,171.412 1022.96,174.579 1022,178.5C 1018.85,188.64 1014.18,197.973 1008,206.5C 997.369,218.8 986.369,230.8 975,242.5C 968.036,255.257 970.87,265.091 983.5,272C 993.153,273.758 1002.15,272.092 1010.5,267C 1021.07,260.221 1031.07,252.721 1040.5,244.5 Z"/></g>
<g><path style="opacity:1" fill="#c2ced0" d="M 1427.5,182.5 C 1435.68,181.179 1444.01,181.179 1452.5,182.5C 1452.38,183.107 1452.04,183.44 1451.5,183.5C 1443.68,182.508 1435.68,182.174 1427.5,182.5 Z"/></g>
<g><path style="opacity:1" fill="#9ccef4" d="M 2023.5,190.5 C 2024.04,190.56 2024.38,190.893 2024.5,191.5C 2015.57,205.801 2009.07,221.134 2005,237.5C 2004.33,243.167 2004.33,248.833 2005,254.5C 2006.32,258.108 2006.99,261.775 2007,265.5C 1998.15,273.425 1987.82,278.092 1976,279.5C 1966.07,279.304 1960.9,274.304 1960.5,264.5C 1961.15,243.696 1969.82,227.196 1986.5,215C 1998.56,206.313 2010.89,198.146 2023.5,190.5 Z"/></g>
<g><path style="opacity:1" fill="#9ccef4" d="M 1773.5,194.5 C 1774.5,194.47 1775.16,194.97 1775.5,196C 1772.04,209.254 1765.04,220.254 1754.5,229C 1737.83,243 1721.17,257 1704.5,271C 1696.44,274.307 1692.44,271.64 1692.5,263C 1693.09,250.199 1697.76,239.199 1706.5,230C 1727.75,216.041 1750.09,204.207 1773.5,194.5 Z"/></g>
<g><path style="opacity:1" fill="#818080" d="M 628.5,197.5 C 636.492,202.497 644.492,207.497 652.5,212.5C 635.542,235.293 615.208,254.46 591.5,270C 587.259,271.457 582.926,271.791 578.5,271C 576.106,269.048 574.606,266.548 574,263.5C 573.787,253.472 576.787,244.472 583,236.5C 595.603,220.389 610.769,207.389 628.5,197.5 Z"/></g>
<g><path style="opacity:1" fill="#c8cecb" d="M 1600.5,236.5 C 1600.5,235.833 1600.17,235.5 1599.5,235.5C 1604.12,229.066 1604.46,229.399 1600.5,236.5 Z"/></g>
<g><path style="opacity:1" fill="#828180" d="M 682.5,235.5 C 688.655,240.411 694.989,245.077 701.5,249.5C 688.824,259.268 675.991,268.934 663,278.5C 668.94,263.951 675.44,249.618 682.5,235.5 Z"/></g>
<g><path style="opacity:1" fill="#c4cecf" d="M 709.5,244.5 C 709.56,243.957 709.893,243.624 710.5,243.5C 711.493,248.12 711.827,252.786 711.5,257.5C 711.167,257.5 710.833,257.5 710.5,257.5C 710.818,252.968 710.485,248.634 709.5,244.5 Z"/></g>
<g><path style="opacity:1" fill="#c2cdd0" d="M 1040.5,244.5 C 1040.56,243.957 1040.89,243.624 1041.5,243.5C 1042.81,248.652 1042.81,253.652 1041.5,258.5C 1041.82,253.637 1041.49,248.97 1040.5,244.5 Z"/></g>
<g><path style="opacity:1" fill="#e3cdaa" d="M 1401.5,244.5 C 1401.18,249.032 1401.52,253.366 1402.5,257.5C 1402.44,258.043 1402.11,258.376 1401.5,258.5C 1400.19,253.682 1400.19,249.015 1401.5,244.5 Z"/></g>
<g><path style="opacity:1" fill="#fbf398" d="M 788.5,468.5 C 799.533,468.534 803.199,473.867 799.5,484.5C 797.174,483.849 794.841,483.182 792.5,482.5C 785.092,485.062 779.259,489.729 775,496.5C 769.377,504.246 763.877,512.079 758.5,520C 774.488,516.336 790.488,512.336 806.5,508C 814.827,507.042 823.161,506.209 831.5,505.5C 834.524,507.174 836.357,509.841 837,513.5C 839.072,523.675 836.739,532.675 830,540.5C 826.167,544.333 822.333,548.167 818.5,552C 814.423,553.787 810.59,555.954 807,558.5C 805.612,563.372 805.112,568.372 805.5,573.5C 810.699,571.987 815.865,570.32 821,568.5C 834.793,571.16 835.96,576.327 824.5,584C 820.5,584.667 816.5,584.667 812.5,584C 809.28,582.475 805.947,581.808 802.5,582C 799.926,588.457 797.426,594.957 795,601.5C 788.743,610.599 780.576,617.265 770.5,621.5C 768.971,621.471 767.804,620.804 767,619.5C 765.669,613 763.169,607 759.5,601.5C 761.045,600.548 762.712,600.215 764.5,600.5C 764.67,599.178 764.337,598.011 763.5,597C 760.5,596.333 757.5,596.333 754.5,597C 748.788,603.217 741.788,607.051 733.5,608.5C 727.389,608.255 722.389,605.921 718.5,601.5C 719.065,599.595 720.065,597.929 721.5,596.5C 729.617,593.275 737.617,589.775 745.5,586C 758.429,585.234 771.096,583.067 783.5,579.5C 784.696,579.846 784.696,580.346 783.5,581C 777.723,583.055 772.389,585.888 767.5,589.5C 772.139,595.321 778.139,598.154 785.5,598C 786.893,596.829 787.727,595.329 788,593.5C 790.663,582.56 791.33,571.56 790,560.5C 788.056,556.89 785.723,553.557 783,550.5C 782.652,546.81 784.152,543.977 787.5,542C 792.242,539.88 796.742,537.38 801,534.5C 803.893,537.619 805.726,541.286 806.5,545.5C 810.75,543.794 814.583,541.461 818,538.5C 823.372,528.227 820.372,523.227 809,523.5C 793.671,523.868 778.837,526.701 764.5,532C 755.569,535.291 748.903,541.124 744.5,549.5C 742.389,550.848 740.555,550.515 739,548.5C 738.348,545.406 738.682,542.406 740,539.5C 752.48,513.209 768.646,489.543 788.5,468.5 Z"/></g>
<g><path style="opacity:1" fill="#fdf69a" d="M 1109.5,470.5 C 1112.17,470.5 1114.83,470.5 1117.5,470.5C 1117.87,475.716 1117.03,480.716 1115,485.5C 1110.5,488.749 1105.84,491.749 1101,494.5C 1093,504.5 1085,514.5 1077,524.5C 1065.42,539.99 1054.09,555.657 1043,571.5C 1042.33,573.167 1042.33,574.833 1043,576.5C 1047.19,586.774 1048.53,597.44 1047,608.5C 1045.97,616.632 1044.3,624.632 1042,632.5C 1038.14,641.269 1034.81,650.269 1032,659.5C 1024.28,665.568 1016.94,671.901 1010,678.5C 1008.12,677.907 1007.12,676.573 1007,674.5C 1006.5,671.854 1006.34,669.187 1006.5,666.5C 996.819,670.065 986.819,671.232 976.5,670C 972.623,668.099 970.457,664.933 970,660.5C 951.683,637.907 946.016,612.574 953,584.5C 957.934,576.733 964.767,571.4 973.5,568.5C 977.009,568.808 978.676,570.808 978.5,574.5C 976.369,580.728 974.536,587.062 973,593.5C 972.172,598.202 972.338,602.869 973.5,607.5C 974.799,606.91 975.632,605.91 976,604.5C 979.803,593.423 983.803,582.423 988,571.5C 995.457,558.849 1006.62,552.516 1021.5,552.5C 1027.8,553.767 1033.8,555.934 1039.5,559C 1040.83,559.667 1042.17,559.667 1043.5,559C 1056.04,536.089 1069.2,513.589 1083,491.5C 1089.72,481.594 1098.55,474.594 1109.5,470.5 Z"/></g>
<g><path style="opacity:1" fill="#fcf498" d="M 204.5,470.5 C 226.601,469.591 230.601,477.758 216.5,495C 197.796,498.275 184.963,508.775 178,526.5C 175.547,532.314 173.713,538.314 172.5,544.5C 176.504,545.014 180.504,544.514 184.5,543C 199.241,538.197 213.908,533.197 228.5,528C 236.987,525.678 245.321,526.011 253.5,529C 260.7,534.906 263.2,542.406 261,551.5C 254.768,572.404 241.935,587.904 222.5,598C 216.896,599.694 211.23,601.027 205.5,602C 189.951,621.889 173.284,640.889 155.5,659C 140.245,671.639 124.579,683.306 108.5,694C 113.29,687.541 118.457,681.374 124,675.5C 148.666,652.51 170,626.843 188,598.5C 188.291,586.417 193.791,577.583 204.5,572C 208.167,571.333 211.833,571.333 215.5,572C 217.813,572.641 219.48,573.974 220.5,576C 219.422,578.795 218.922,581.629 219,584.5C 230.784,579.049 240.451,571.049 248,560.5C 249.456,556.985 249.622,553.485 248.5,550C 236.396,547.318 224.73,548.651 213.5,554C 200.559,560.632 187.892,567.632 175.5,575C 169.731,576.368 165.231,574.534 162,569.5C 161.393,566.798 161.56,564.132 162.5,561.5C 158.917,555.264 157.751,548.597 159,541.5C 166.052,517.218 177.885,495.718 194.5,477C 197.728,474.56 201.061,472.394 204.5,470.5 Z"/></g>
<g><path style="opacity:1" fill="#fdf699" d="M 938.5,585.5 C 932.004,591.163 926.004,597.329 920.5,604C 918.892,604.658 917.725,604.158 917,602.5C 916.949,598.843 917.282,595.177 918,591.5C 921.457,582.559 925.957,574.226 931.5,566.5C 945.041,548.112 959.207,530.112 974,512.5C 984.994,498.834 997.827,487.334 1012.5,478C 1033.19,471.041 1042.02,478.207 1039,499.5C 1031.68,501.5 1024.52,504 1017.5,507C 988.663,530.67 962.33,556.837 938.5,585.5 Z"/></g>
<g><path style="opacity:1" fill="#fcf498" d="M 469.5,482.5 C 472.777,482.216 475.943,482.549 479,483.5C 479.766,489.938 478.266,495.771 474.5,501C 472.285,502.044 469.952,502.71 467.5,503C 455.835,516.497 448.001,531.997 444,549.5C 443.333,555.167 443.333,560.833 444,566.5C 445.35,571.185 448.183,574.685 452.5,577C 454.289,577.52 455.956,577.187 457.5,576C 461.412,570.301 465.912,565.134 471,560.5C 474.791,552.46 477.791,544.127 480,535.5C 483.885,530.52 486.219,524.853 487,518.5C 498.11,504.676 512.61,498.843 530.5,501C 537.109,504.03 540.942,509.197 542,516.5C 545.137,526.964 546.137,537.631 545,548.5C 542.277,555.862 539.61,563.196 537,570.5C 532.636,582.199 524.47,589.699 512.5,593C 511.333,594.167 510.167,595.333 509,596.5C 507.105,602.323 506.105,608.323 506,614.5C 497.364,631.806 486.364,647.473 473,661.5C 473.662,657.517 474.662,653.517 476,649.5C 481.726,635.656 487.059,621.656 492,607.5C 493.294,602.028 494.461,596.528 495.5,591C 492.776,576.611 491.11,562.111 490.5,547.5C 494.5,546.344 497.5,543.844 499.5,540C 503.26,538.824 506.093,539.99 508,543.5C 508.812,547.67 508.312,551.67 506.5,555.5C 507.398,557.626 508.565,559.626 510,561.5C 510.405,565.213 510.405,568.879 510,572.5C 512.448,575.545 515.281,576.045 518.5,574C 523.295,570.245 526.462,565.412 528,559.5C 529.901,552.627 531.068,545.627 531.5,538.5C 531.449,534.179 530.282,530.179 528,526.5C 526.53,524.848 524.697,523.848 522.5,523.5C 514.387,526.371 506.387,529.538 498.5,533C 494.946,536.554 491.446,540.054 488,543.5C 483.233,551.105 481.233,559.438 482,568.5C 477.071,579.418 470.571,589.252 462.5,598C 456.771,602.01 450.438,603.344 443.5,602C 436.061,595.966 431.561,588.133 430,578.5C 429.333,567.833 429.333,557.167 430,546.5C 431.026,540.089 432.859,533.922 435.5,528C 434.464,524.879 434.297,521.713 435,518.5C 442.972,503.03 454.472,491.03 469.5,482.5 Z"/></g>
<g><path style="opacity:1" fill="#fcf498" d="M 733.5,482.5 C 740.673,480.839 743.173,483.506 741,490.5C 738.669,497.162 734.503,502.329 728.5,506C 725.798,506.607 723.132,506.44 720.5,505.5C 701.283,514.221 688.616,528.721 682.5,549C 684.789,550.922 687.455,552.255 690.5,553C 695.153,555.942 696.653,560.109 695,565.5C 691.043,572.358 689.376,579.691 690,587.5C 692.06,592.62 694.393,597.62 697,602.5C 699.209,604.706 701.709,605.04 704.5,603.5C 705.684,612.344 704.851,621.01 702,629.5C 699.758,630.175 697.591,629.675 695.5,628C 677.495,612.162 672.162,592.662 679.5,569.5C 673.282,569.973 667.282,571.139 661.5,573C 659.1,569.222 659.267,565.388 662,561.5C 673.754,544.325 685.754,527.325 698,510.5C 708.031,498.606 719.865,489.272 733.5,482.5 Z"/></g>
<g><path style="opacity:1" fill="#fdf69a" d="M 1319.5,489.5 C 1324.67,490.245 1328.67,492.745 1331.5,497C 1326.78,510.48 1321.28,523.647 1315,536.5C 1314.02,538.74 1313.52,541.073 1313.5,543.5C 1319.68,541.582 1326.01,541.082 1332.5,542C 1336.33,543.167 1338.83,545.667 1340,549.5C 1342.31,565.749 1342.98,582.082 1342,598.5C 1337.58,624.88 1323.75,644.38 1300.5,657C 1296.65,664.861 1290.48,669.695 1282,671.5C 1279.97,671.646 1278.3,670.98 1277,669.5C 1278.66,660.591 1278.99,651.591 1278,642.5C 1285.47,638.901 1293.14,638.568 1301,641.5C 1318.93,624.051 1327.27,602.717 1326,577.5C 1324.56,565.043 1317.72,559.876 1305.5,562C 1302.7,563.793 1300.2,565.96 1298,568.5C 1279.84,597.656 1260.51,625.989 1240,653.5C 1232.77,661.404 1224.93,668.571 1216.5,675C 1208.67,683.5 1200.83,692 1193,700.5C 1192.83,700 1192.67,699.5 1192.5,699C 1216.95,663.948 1240.78,628.448 1264,592.5C 1268,583.827 1273,575.827 1279,568.5C 1280.01,566.975 1280.51,565.308 1280.5,563.5C 1274.53,562.526 1268.53,562.359 1262.5,563C 1256.45,565.281 1250.28,567.115 1244,568.5C 1237.91,569.076 1235.24,566.409 1236,560.5C 1240.15,555.171 1245.65,552.005 1252.5,551C 1260.47,549.91 1268.47,549.077 1276.5,548.5C 1281.27,548.716 1285.93,549.216 1290.5,550C 1299.39,535.055 1306.22,519.222 1311,502.5C 1313.46,497.875 1316.3,493.542 1319.5,489.5 Z"/></g>
<g><path style="opacity:1" fill="#fcf498" d="M 386.5,498.5 C 395.063,498.107 403.063,500.107 410.5,504.5C 414.432,512.518 412.765,519.018 405.5,524C 401.511,523.893 398.011,525.059 395,527.5C 392.524,534.427 390.357,541.427 388.5,548.5C 386.876,548.64 385.71,547.973 385,546.5C 384.21,540.448 384.376,534.448 385.5,528.5C 381.761,525.865 378.261,522.865 375,519.5C 374.133,509.899 377.967,502.899 386.5,498.5 Z"/></g>
<g><path style="opacity:1" fill="#fef699" d="M 1574.5,518.5 C 1586.61,519.057 1597.27,523.224 1606.5,531C 1619.64,547.444 1633.14,563.611 1647,579.5C 1661.32,594.584 1678.15,606.084 1697.5,614C 1716.17,621.667 1734.83,629.333 1753.5,637C 1757.46,639.234 1760.96,642.067 1764,645.5C 1764.67,646.5 1764.67,647.5 1764,648.5C 1759.37,650.535 1754.54,652.035 1749.5,653C 1746.31,659.179 1741.31,661.179 1734.5,659C 1704.12,650.475 1675.46,638.142 1648.5,622C 1635.63,612.966 1624.63,602.132 1615.5,589.5C 1606.12,592.692 1597.45,597.192 1589.5,603C 1572.38,617.722 1554.71,631.722 1536.5,645C 1530.35,649.052 1523.69,651.052 1516.5,651C 1513.21,641.395 1516.38,634.562 1526,630.5C 1530.07,632.974 1534.24,633.141 1538.5,631C 1554.92,615.924 1569.09,599.091 1581,580.5C 1585.71,574.966 1590.54,569.632 1595.5,564.5C 1588.62,555.283 1579.95,548.283 1569.5,543.5C 1566.1,545.284 1562.6,546.951 1559,548.5C 1557.52,547.556 1556.52,546.223 1556,544.5C 1553.75,536.191 1555.92,529.357 1562.5,524C 1566.48,521.854 1570.48,520.02 1574.5,518.5 Z"/></g>
<g><path style="opacity:1" fill="#fcf598" d="M 110.5,525.5 C 117.841,525.334 125.174,525.5 132.5,526C 145.144,528.955 151.311,536.789 151,549.5C 140.833,567.833 130.667,586.167 120.5,604.5C 127.448,608.28 132.948,613.614 137,620.5C 139,627.5 139,634.5 137,641.5C 136.535,642.931 135.701,644.097 134.5,645C 127.646,647.517 121.313,646.517 115.5,642C 112.647,639.089 109.647,636.422 106.5,634C 104.557,632.445 102.39,631.278 100,630.5C 90.881,637.949 82.0477,645.782 73.5,654C 69.2152,657.149 64.5485,659.149 59.5,660C 58.8656,657.925 58.5323,655.759 58.5,653.5C 59.5765,647.357 60.5765,641.19 61.5,635C 60.8548,630.832 60.6882,626.665 61,622.5C 65.5968,612.105 72.4301,603.605 81.5,597C 84.8333,596.333 88.1667,596.333 91.5,597C 96.5337,598.674 101.7,599.841 107,600.5C 108.167,600.167 109.333,599.833 110.5,599.5C 119.196,585.443 125.696,570.443 130,554.5C 130.818,551.773 130.652,549.106 129.5,546.5C 113.938,551.39 98.6048,556.89 83.5,563C 77.5308,564.71 73.6974,562.543 72,556.5C 71.182,549.299 73.3487,543.133 78.5,538C 88.1062,530.967 98.7729,526.801 110.5,525.5 Z"/></g>
<g><path style="opacity:1" fill="#fdf69a" d="M 1135.5,530.5 C 1141.85,530.228 1147.52,532.062 1152.5,536C 1156,538.833 1159.5,541.667 1163,544.5C 1166.96,548.4 1168.62,553.067 1168,558.5C 1167.58,559.672 1166.91,560.672 1166,561.5C 1165.91,578.872 1165.25,596.205 1164,613.5C 1159.34,629.499 1153,644.832 1145,659.5C 1140.31,665.531 1134.47,670.031 1127.5,673C 1121.53,680.317 1113.87,684.484 1104.5,685.5C 1105.13,681.406 1106.47,677.573 1108.5,674C 1108.3,671.463 1106.97,669.796 1104.5,669C 1109.83,664 1115.17,659 1120.5,654C 1124,653.306 1127.34,653.806 1130.5,655.5C 1151.41,626.388 1155.25,595.054 1142,561.5C 1140.83,559 1139,557.167 1136.5,556C 1130.83,555.333 1125.17,555.333 1119.5,556C 1105.62,558.554 1091.95,561.888 1078.5,566C 1075.85,566.497 1073.19,566.664 1070.5,566.5C 1069.28,555.766 1073.28,547.6 1082.5,542C 1086.05,540.059 1089.71,538.393 1093.5,537C 1106.83,535.334 1120.16,533.667 1133.5,532C 1134.42,531.722 1135.08,531.222 1135.5,530.5 Z"/></g>
<g><path style="opacity:1" fill="#fef69a" d="M 1415.5,548.5 C 1442.49,546.99 1453.99,559.657 1450,586.5C 1449.52,592.432 1447.52,597.765 1444,602.5C 1439.69,605.647 1435.85,609.314 1432.5,613.5C 1435.05,615.708 1437.55,618.041 1440,620.5C 1440.62,622.464 1440.12,624.131 1438.5,625.5C 1439.64,627.078 1440.14,628.744 1440,630.5C 1428.06,638.037 1415.06,642.37 1401,643.5C 1391.84,644.02 1386.51,639.687 1385,630.5C 1383.77,625.97 1384.61,621.97 1387.5,618.5C 1395.15,615.447 1402.81,612.28 1410.5,609C 1418.05,604.45 1423.88,598.283 1428,590.5C 1429.43,586.594 1429.77,582.594 1429,578.5C 1428.65,576.82 1427.65,575.82 1426,575.5C 1418.97,577.065 1412.14,579.232 1405.5,582C 1398.83,582.333 1392.17,582.667 1385.5,583C 1381.42,585.312 1378.92,588.812 1378,593.5C 1376.08,602.301 1376.41,610.968 1379,619.5C 1380.29,626.07 1378.79,631.903 1374.5,637C 1367.45,637.708 1362.95,634.541 1361,627.5C 1358.52,618.197 1355.18,609.197 1351,600.5C 1347.95,587.814 1349.62,575.814 1356,564.5C 1362.28,556.345 1370.12,554.012 1379.5,557.5C 1381.61,559.925 1382.11,562.592 1381,565.5C 1391.31,557.262 1402.81,551.595 1415.5,548.5 Z"/></g>
<g><path style="opacity:1" fill="#fcf498" d="M 368.5,557.5 C 380.18,556.682 385.68,562.015 385,573.5C 381.919,576.293 378.419,578.46 374.5,580C 373.426,580.739 372.759,581.739 372.5,583C 373.973,592.451 375.14,601.951 376,611.5C 378.79,623.413 384.456,633.746 393,642.5C 398.286,645.453 402.62,649.453 406,654.5C 406.495,656.473 406.662,658.473 406.5,660.5C 448.961,669.846 490.961,668.012 532.5,655C 536.813,650.457 541.479,649.791 546.5,653C 550.833,653.333 555.167,653.667 559.5,654C 562.017,656.194 561.684,658.194 558.5,660C 554.041,661.076 551.541,663.909 551,668.5C 548.766,670.7 546.266,672.533 543.5,674C 510.913,686.084 477.247,691.084 442.5,689C 419.822,684.531 397.155,680.197 374.5,676C 370.075,669.552 371.075,663.885 377.5,659C 380.674,657.275 384.007,655.942 387.5,655C 373.409,646.354 364.576,633.854 361,617.5C 358.61,601.581 357.943,585.581 359,569.5C 360.892,564.447 364.058,560.447 368.5,557.5 Z"/></g>
<g><path style="opacity:1" fill="#a2d1f1" d="M 1375.5,568.5 C 1376.78,569.694 1377.44,571.36 1377.5,573.5C 1377.28,580.148 1375.78,586.481 1373,592.5C 1371.99,593.337 1370.82,593.67 1369.5,593.5C 1366.67,586.106 1366.84,578.773 1370,571.5C 1371.88,570.391 1373.71,569.391 1375.5,568.5 Z"/></g>
<g><path style="opacity:1" fill="#9dcff4" d="M 1015.5,575.5 C 1019.03,575.346 1021.86,576.679 1024,579.5C 1025.61,582.382 1026.94,585.382 1028,588.5C 1031.6,610.801 1028.6,632.135 1019,652.5C 1016.18,658.642 1013.02,658.642 1009.5,652.5C 1011.42,650.929 1012.42,648.929 1012.5,646.5C 1007.82,646.334 1003.15,646.501 998.5,647C 993.103,649.377 987.603,650.21 982,649.5C 981.294,647.029 981.627,644.695 983,642.5C 991.966,634.39 999.133,625.056 1004.5,614.5C 1002.8,608.135 999.798,602.469 995.5,597.5C 990.288,596.797 985.788,598.463 982,602.5C 982.877,594.598 986.71,588.431 993.5,584C 1000.46,579.852 1007.79,577.019 1015.5,575.5 Z"/></g>
<g><path style="opacity:1" fill="#fdf69a" d="M 1067.5,580.5 C 1076.11,582.301 1084.78,583.635 1093.5,584.5C 1094.1,589.618 1095.93,594.285 1099,598.5C 1100.95,614.22 1094.11,620.72 1078.5,618C 1075.64,617.73 1072.97,616.896 1070.5,615.5C 1067.59,610.002 1064.42,604.668 1061,599.5C 1060.33,596.833 1060.33,594.167 1061,591.5C 1063.18,587.806 1065.34,584.139 1067.5,580.5 Z"/></g>
<g><path style="opacity:1" fill="#fcf498" d="M 703.5,691.5 C 700.145,691.091 697.145,691.758 694.5,693.5C 677.38,688.266 671.547,676.933 677,659.5C 681.38,648.223 689.546,641.556 701.5,639.5C 703.808,639.365 705.808,640.031 707.5,641.5C 695.124,648.24 691.124,658.24 695.5,671.5C 696.5,671.5 697.5,671.5 698.5,671.5C 700.345,658.783 707.345,653.95 719.5,657C 729.343,666.422 741.009,672.422 754.5,675C 772.723,676.499 790.723,675.165 808.5,671C 813.713,667.454 817.88,662.954 821,657.5C 820.792,648.775 816.292,643.442 807.5,641.5C 805.39,642.054 803.39,642.888 801.5,644C 790.573,656.302 779.406,656.469 768,644.5C 764.733,637.583 766.566,632.916 773.5,630.5C 777.193,630.753 780.526,631.92 783.5,634C 795.179,634.997 806.179,632.664 816.5,627C 821.167,622 825.833,617 830.5,612C 837.376,606.929 845.043,604.929 853.5,606C 860.194,615.373 858.194,622.373 847.5,627C 839.887,627.944 832.387,627.444 825,625.5C 820.896,627.933 817.063,630.767 813.5,634C 830.584,638.664 838.417,649.831 837,667.5C 836,669.167 835,670.833 834,672.5C 806.457,696.475 775.29,702.642 740.5,691C 730.066,684.7 719.566,678.534 709,672.5C 707.013,673.154 705.68,674.487 705,676.5C 704.728,681.549 704.228,686.549 703.5,691.5 Z"/></g>
<g><path style="opacity:1" fill="#848480" d="M 80.5,623.5 C 81.8734,623.343 83.2068,623.51 84.5,624C 78.9502,630.768 71.9502,634.935 63.5,636.5C 63.178,634.278 63.8446,632.444 65.5,631C 70.3236,627.921 75.3236,625.421 80.5,623.5 Z"/></g>
<g><path style="opacity:1" fill="#a0d0f2" d="M 976.5,623.5 C 979.634,624.901 982.634,626.568 985.5,628.5C 982.884,634.298 980.884,640.298 979.5,646.5C 976.95,646.439 975.45,645.106 975,642.5C 974.082,636.021 974.582,629.688 976.5,623.5 Z"/></g>
<g><path style="opacity:1" fill="#fcf498" d="M 196.5,634.5 C 197.873,634.343 199.207,634.51 200.5,635C 208.437,639.802 216.77,643.802 225.5,647C 246.644,651.495 267.644,656.495 288.5,662C 292.333,663.68 295.333,666.18 297.5,669.5C 297.182,670.647 296.516,671.481 295.5,672C 289.126,671.788 283.126,673.121 277.5,676C 276.801,678.909 274.967,680.409 272,680.5C 241.406,676.778 214.239,665.278 190.5,646C 192.025,643.092 193.025,639.926 193.5,636.5C 194.739,636.058 195.739,635.391 196.5,634.5 Z"/></g>
<g><path style="opacity:1" fill="#bdb98b" d="M 703.5,691.5 C 700.763,692.051 698.096,693.051 695.5,694.5C 694.893,694.376 694.56,694.043 694.5,693.5C 697.145,691.758 700.145,691.091 703.5,691.5 Z"/></g>
</svg>
